<svg width="152" height="71" viewBox="0 0 152 71" fill="none" xmlns="http://www.w3.org/2000/svg">
<path d="M19.0752 59.2126C16.3002 58.0251 14.1072 56.3117 12.4922 54.0765C10.8772 51.8412 10.0492 49.2033 10 46.1586H20.6738C20.8173 48.2048 21.5387 49.8196 22.8422 51.0071C24.1456 52.1946 25.9369 52.7904 28.2118 52.7904C30.4868 52.7904 32.36 52.2315 33.6922 51.1139C35.0203 49.9963 35.6843 48.5335 35.6843 46.7256C35.6843 45.2546 35.2334 44.0383 34.3316 43.0892C33.4299 42.14 32.3026 41.3881 30.9541 40.8416C29.6014 40.2951 27.7405 39.6911 25.3671 39.0213C22.1412 38.0722 19.522 37.1312 17.5053 36.2026C15.4886 35.274 13.7588 33.8729 12.3118 31.9951C10.869 30.1255 10.1476 27.615 10.1476 24.4799C10.1476 21.5338 10.8813 18.9657 12.3528 16.7756C13.8244 14.5897 15.8862 12.9132 18.5423 11.7463C21.1985 10.5835 24.2358 10 27.6503 10C32.774 10 36.9345 11.2491 40.1358 13.7432C43.3371 16.2374 45.1038 19.7217 45.4358 24.1922H34.4792C34.3849 22.4788 33.6594 21.0653 32.3108 19.9477C30.9582 18.8301 29.1669 18.2713 26.9371 18.2713C24.99 18.2713 23.4365 18.7726 22.2765 19.771C21.1124 20.7695 20.5344 22.2199 20.5344 24.1224C20.5344 25.4537 20.973 26.559 21.8502 27.4383C22.7274 28.3176 23.8177 29.0325 25.1212 29.579C26.4247 30.1255 28.261 30.7542 30.6344 31.4691C33.8603 32.4224 36.4918 33.3716 38.5331 34.3207C40.5703 35.274 42.3288 36.6998 43.7962 38.6022C45.2678 40.5047 46.0015 42.9988 46.0015 46.0928C46.0015 48.7554 45.3129 51.229 43.9397 53.5094C42.5624 55.7899 40.5498 57.6101 37.8937 58.9661C35.2375 60.322 32.0813 61 28.4291 61C24.9654 61 21.8461 60.4042 19.0711 59.2167L19.0752 59.2126Z" fill="white"/>
<path d="M86.9218 33.6058C85.6634 35.9355 83.6959 37.8133 81.0151 39.2391C78.3344 40.6649 74.9568 41.3799 70.8742 41.3799H62.5491V60.4946H52.5886V10.715H70.8742C74.715 10.715 77.9901 11.3806 80.6913 12.7119C83.3966 14.0432 85.4215 15.8758 86.7742 18.2055C88.1269 20.5353 88.8032 23.1732 88.8032 26.1234C88.8032 28.786 88.172 31.2842 86.9177 33.614L86.9218 33.6058ZM76.5677 31.4322C77.8958 30.1748 78.5598 28.3998 78.5598 26.1193C78.5598 21.2708 75.8545 18.8424 70.4479 18.8424H62.5491V33.3223H70.4479C73.1983 33.3223 75.2396 32.6936 76.5677 31.4322Z" fill="white"/>
<path d="M141.943 30.6556C141.943 30.6556 141.943 30.6515 141.943 30.6474C141.893 30.3063 141.25 29.3325 141.25 29.3325L140.127 29.727H139.885C139.528 29.727 139.192 29.8749 138.954 30.1378L131.22 37.5421L132.503 38.9433L132.175 40.4513C131.416 44.063 129.826 46.8817 127.408 48.9033C124.989 50.9249 121.882 51.9357 118.086 51.9357C115.004 51.9357 112.299 51.2701 109.975 49.9388C107.65 48.6075 105.835 46.705 104.531 44.2315C103.228 41.7579 102.576 38.857 102.576 35.5288C102.576 32.2005 103.215 29.4434 104.498 26.9699C105.777 24.4963 107.556 22.5939 109.835 21.2626C112.11 19.9313 114.721 19.2656 117.66 19.2656C120.316 19.2656 122.64 19.8121 124.633 20.9051C126.371 21.8584 127.781 23.1897 128.867 24.9031C129.027 25.1537 136.68 18.2014 136.68 18.2014C136.68 18.2014 136.569 17.9631 136.475 17.8563C135.257 16.4592 133.847 15.2266 132.24 14.1665C128.121 11.4381 123.255 10.0699 117.66 10.0699C112.918 10.0699 108.614 11.1505 104.748 13.3159C100.883 15.4813 97.8456 18.4973 95.6403 22.372C93.4351 26.2467 92.3325 30.635 92.3325 35.5329C92.3325 40.4307 93.4351 44.8026 95.6403 48.6568C97.8456 52.5068 100.883 55.5146 104.748 57.68C108.614 59.8454 112.942 60.926 117.734 60.926C122.005 60.926 125.858 60.0344 129.297 58.2511C130.568 57.5896 131.753 56.85 132.855 56.0323V59.6112H142V30.9925C142 30.8775 141.98 30.7665 141.951 30.6597L141.943 30.6556Z" fill="white"/>
<path d="M120.173 40.48C120.083 40.3444 115.992 36.0629 115.992 36.0629C115.992 36.0629 113.946 35.0151 112.131 36.8354C110.315 38.6557 111.561 40.591 112.131 41.1621C112.7 41.7332 119.853 49.0882 119.853 49.0882L139.43 29.8708L141.98 30.6884C141.98 30.6884 141.889 28.4121 141.615 27.956C141.34 27.4999 140.889 24.8579 138.434 26.5877C135.979 28.3176 120.169 40.48 120.169 40.48H120.173Z" fill="#8C0300"/>
</svg>
